<svg width="34" height="34" viewBox="0 0 34 34" fill="none" xmlns="http://www.w3.org/2000/svg">
<path d="M23.6444 2.78162H9.7359C5.89519 2.78162 2.78168 5.89513 2.78168 9.73584V23.6443C2.78168 27.485 5.89519 30.5985 9.7359 30.5985H23.6444C27.4851 30.5985 30.5986 27.485 30.5986 23.6443V9.73584C30.5986 5.89513 27.4851 2.78162 23.6444 2.78162Z" stroke="white" stroke-width="2.78169" stroke-linecap="round" stroke-linejoin="round"/>
<path d="M22.2536 15.8139C22.4252 16.9714 22.2275 18.1536 21.6886 19.1922C21.1496 20.2309 20.2969 21.0732 19.2516 21.5993C18.2064 22.1254 17.0219 22.3085 15.8665 22.1226C14.7112 21.9367 13.6439 21.3913 12.8165 20.5638C11.9891 19.7364 11.4436 18.6691 11.2577 17.5138C11.0718 16.3584 11.2549 15.1739 11.781 14.1287C12.3071 13.0834 13.1494 12.2307 14.1881 11.6917C15.2268 11.1528 16.4089 10.9551 17.5665 11.1267C18.7472 11.3018 19.8403 11.852 20.6843 12.696C21.5283 13.54 22.0785 14.6331 22.2536 15.8139Z" stroke="white" stroke-width="2.78169" stroke-linecap="round" stroke-linejoin="round"/>
<path d="M24.3398 9.04053H24.3542" stroke="white" stroke-width="2.78169" stroke-linecap="round" stroke-linejoin="round"/>
</svg>
