<svg width="34" height="34" viewBox="0 0 34 34" fill="none" xmlns="http://www.w3.org/2000/svg">
<g clip-path="url(#clip0_1_27)">
<path d="M31.9692 8.9292C31.804 8.26912 31.4675 7.66433 30.9937 7.17591C30.52 6.68749 29.9257 6.33275 29.271 6.14751C26.8787 5.56335 17.3097 5.56335 17.3097 5.56335C17.3097 5.56335 7.74069 5.56335 5.34844 6.20314C4.69369 6.38838 4.09943 6.74313 3.62566 7.23154C3.1519 7.71996 2.81541 8.32475 2.6502 8.98483C2.21238 11.4126 1.99822 13.8755 2.01041 16.3424C1.9948 18.8279 2.20898 21.3095 2.6502 23.7556C2.83234 24.3952 3.17636 24.977 3.64902 25.4448C4.12168 25.9125 4.70701 26.2505 5.34844 26.426C7.74069 27.0658 17.3097 27.0658 17.3097 27.0658C17.3097 27.0658 26.8787 27.0658 29.271 26.426C29.9257 26.2408 30.52 25.886 30.9937 25.3976C31.4675 24.9092 31.804 24.3044 31.9692 23.6443C32.4037 21.2348 32.6178 18.7908 32.609 16.3424C32.6246 13.8569 32.4104 11.3753 31.9692 8.9292Z" fill="white" stroke="white" stroke-width="2.78169" stroke-linecap="round" stroke-linejoin="round"/>
<path d="M14.1803 20.8904L22.1777 16.3424L14.1803 11.7943V20.8904Z" fill="#132742" stroke="#132742" stroke-width="2.78169" stroke-linecap="round" stroke-linejoin="round"/>
</g>
<defs>
<clipPath id="clip0_1_27">
<rect width="33.3803" height="33.3803" fill="white" transform="translate(0.619629)"/>
</clipPath>
</defs>
</svg>
